# xmcd CD database file
#
# Track frame offsets:
#	150
#	29298
#	49418
#	76856
#	103308
#	116473
#	133363
#	148389
#	175421
#	204405
#	231810
#	255130
#
# Disc length: 3623 seconds
#
# Revision: 0
# Processed by: cddbd v1.5.2PL0 Copyright (c) Steve Scherf et al.
# Submitted via: CDex 1.51
#
DISCID=ab0e250c
DTITLE=STAN GETZ AT NALEN(With Jan Johansson) - Live In The Swedish Harlem
DYEAR=2011
DGENRE=Jazz
TTITLE0=Stuffy
TTITLE1=The Thrill Is Gone
TTITLE2=News From Blueport
TTITLE3=I Want To Be Happy
TTITLE4=Ah-Moore
TTITLE5=A New Rhumba
TTITLE6=Catch As Catch Can
TTITLE7=Get Happy
TTITLE8=Younger Than Springtime
TTITLE9=Gone With The Wind
TTITLE10=Easy Living
TTITLE11=Summertime
EXTD=YEAR: 2011
EXTT0=
EXTT1=
EXTT2=
EXTT3=
EXTT4=
EXTT5=
EXTT6=
EXTT7=
EXTT8=
EXTT9=
EXTT10=
EXTT11=
PLAYORDER=
